/* XPM */
static const char *b3V0cHV0LW9ubGluZXBuZ3Rvb2xz[] = {
/* columns rows colors chars-per-pixel */
"256 64 2 1 ",
"  c red",
". c None",
/* pixels */
"................................................................................................................................................................................................................................................................",
"................................................................................................................................................................................................................................................................",
"............................................................................................................................................. ..................................................................................................................",
"........................................................................................................................ .. ................. ..................................................................................................................",
"......................................................................................................................  .. ........ .......  ...................................................................................................................",
".....................................................................................................................  ..  ....... ......  . ...................................................................................................................",
"....................................................................................................................  ... ...........    ..  ...................................................................................................................",
".................................................................................................................... .... .......      .... ....................................................................................................................",
"...................................................................................................................  ........     ........ .....................................................................................................................",
"................................................................................................................... ....................  ......................................................................................................................",
"..................................................................................................................  ...................  .......................................................................................................................",
".................................................................................................................. .................    ........................................................................................................................",
".................................................................................................................. ................   ..........................................................................................................................",
".................................................................................................................  ..............  .............................................................................................................................",
"................................................................................................................  ..............  ..............................................................................................................................",
"..............................................................................................................  ............... ..........   ...................................................................................................................",
".............................................................................................................  .............................  ..................................................................................................................",
"............................................................................................................. . .............................. .................................................................................................................",
"............................................................................................................ .. ............................... ................................................................................................................",
"...........................................................................................................  .  ................................ ...............................................................................................................",
"........................................................................................................... .. ... ........................ ....................................................................................................................",
"........................................................................................................... ............................. ...  .................................................................................................................",
"................................................................................................................. ....................... ......................................................................................................................",
".......................................................................................................................................... .....................................................................................................................",
".......................................................................................................... .................................  ..................................................................................................................",
".......................................................................................................... ...................................  ................................................................................................................",
"......................................................................................................... .......................   ...........  ...............................................................................................................",
"........................................................................................................ ........................ .. ............ ..............................................................................................................",
"....................................................................................................... ......................... ... ..........................................................................................................................",
"...................................................................................................... ...................  ..... .... .........................................................................................................................",
"............................................................................................................. ..........  ...  .. .... ....... . ...............................................................................................................",
".....................................................................................................................   ......  . ............ .................................................................................................................",
".................................................................................................... ....... ...... ........... . ..... ...... .................................................................................................................",
".................................................................................................................. .............  ..... ...... .................................................................................................................",
".................................................................................................... ............ ..     .......  ..............................................................................................................................",
"................................................................................................................................ .............. ................................................................................................................",
"......................................................................................................................... ...... ...............................................................................................................................",
".......................................................................................................................... .....................................................................................................................................",
"..........................................................................................................................  ....................................................................................................................................",
"........................................................................................................................... ....................................................................................................................................",
"................................................................................................................................................................................................................................................................",
"................................................................................................................................................................................................................................................................",
"................................................................................................................................................................................................................................................................",
"...................................................................................................................       ...       .       ....................................................................................................................",
"...................................................................................................................        ..       ..       ...................................................................................................................",
"...................................................................................................................   ...  ..   ......   ..   ..................................................................................................................",
"...................................................................................................................   ...   .   ......   ...  ..................................................................................................................",
"...................................................................................................................   ..   ..      ...   ...   .................................................................................................................",
"...................................................................................................................        ..      ...   ...   .................................................................................................................",
"...................................................................................................................      ....   ......   ...   .................................................................................................................",
"...................................................................................................................   .   ...   ......   ...  ..................................................................................................................",
"..............................................................................................       ..............   ..   ..   ... ..   ..   .............       ..............................................................................................",
"...............................................................................................        ............   ..    .       ..       ..............       ..............................................................................................",
"................................................................................................  ..   .................................   ................   ..................................................................................................",
"................................................................................................  ...   .       .....    .....       ...     ...   ....  ..  ...................................................................................................",
"................................................................................................  ...   .   ..   ....    ....    ..  ..   .   ...   ...  ..   ..................................................................................................",
"................................................................................................  ...   .   ...   ...    ....   ......   ...   ..    ..  ..     ................................................................................................",
"................................................................................................  ...   .   ...   ... .   ..   .......   ....  ..     .  ...      ..............................................................................................",
"................................................................................................  ...   .   ..   ...  ..  ..   .......   ....   .     .  .....    ..............................................................................................",
"................................................................................................  ...   .        ...  ..  ..   ...   .   ....   .  .     .......  ..............................................................................................",
"................................................................................................  ...   .      .....  ..   .   ...   .   ....  ..  ..    .......  ..............................................................................................",
"................................................................................................  ..   ..   .   ...        ..   ..   .   ...   ..  ..    .. ...   ..............................................................................................",
"...............................................................................................        ..   ..   ..  ....   ..       ..       ...  ...   ..       ..............................................................................................",
"...............................................................................................       ...   ...     .....   ..       ...     ....  ....  ..      ..............................................................................................."
};
